<svg width="60" height="60" viewBox="0 0 60 60" fill="none" xmlns="http://www.w3.org/2000/svg">
<path d="M30 21.4286V38.7315M38.5715 30H21.4286M47.1429 41.4286V18.5715C47.1429 17.0559 46.5408 15.6025 45.4692 14.5309C44.3976 13.4592 42.9441 12.8572 41.4286 12.8572H18.5715C17.0559 12.8572 15.6025 13.4592 14.5309 14.5309C13.4592 15.6025 12.8572 17.0559 12.8572 18.5715V41.4286C12.8572 42.9441 13.4592 44.3976 14.5309 45.4692C15.6025 46.5408 17.0559 47.1429 18.5715 47.1429H41.4286C42.9441 47.1429 44.3976 46.5408 45.4692 45.4692C46.5408 44.3976 47.1429 42.9441 47.1429 41.4286Z" stroke="white" stroke-width="2.85714" stroke-linecap="round" stroke-linejoin="round"/>
</svg>
